<svg xmlns="http://www.w3.org/2000/svg" xmlns:xlink="http://www.w3.org/1999/xlink"><symbol id="a" fill="none" viewBox="0 0 22 22"><path stroke="currentColor" d="m21 7-10 9-10-9"/></symbol><use xlink:href="#a" width="22" height="22"/><view viewBox="0 0 22 22"/><symbol id="b" fill="none" viewBox="0 0 11 12"><path stroke="currentColor" d="M11 5.69h-10m0 0 4.97 5.31m-4.97-5.31 4.97-4.69"/></symbol><use xlink:href="#b" width="11" height="12" y="22"/><view viewBox="0 22 11 12"/><symbol id="c" fill="none" viewBox="0 0 22 22"><path stroke="currentColor" stroke-linecap="round" stroke-linejoin="round" d="m2 20 9-9m0 0 9-9m-9 9 9 9m-9-9-9-9"/></symbol><use xlink:href="#c" width="22" height="22" y="34"/><view viewBox="0 34 22 22"/><symbol id="d" fill="none" viewBox="0 0 10 10"><path stroke="currentColor" d="m1 9 8-8m0 0h-7.95m7.95 0v7.95"/></symbol><use xlink:href="#d" width="10" height="10" y="56"/><view viewBox="0 56 10 10"/><symbol id="e" fill="none" viewBox="0 0 20 20"><path stroke="currentColor" stroke-linecap="round" d="M1 6h20m-20 5h20m-20 5h20"/></symbol><use xlink:href="#e" width="20" height="20" y="66"/><view viewBox="0 66 20 20"/><symbol id="f" fill="none" viewBox="0 0 22 22"><path fill="currentColor" d="M11 3.33c1.32 0 2.4 1.05 2.4 2.35s-1.08 2.35-2.4 2.35-2.4-1.06-2.4-2.35c0-1.3 1.08-2.35 2.4-2.35m0 8.02c3.2 0 5.8-2.54 5.8-5.67s-2.6-5.68-5.8-5.68-5.79 2.55-5.79 5.68 2.6 5.68 5.79 5.68m2.34 4.63a11 11 0 0 0 3.37-1.37 1.64 1.64 0 0 0 .53-2.3 1.72 1.72 0 0 0-2.34-.52 7.49 7.49 0 0 1-7.8 0 1.71 1.71 0 0 0-2.34.53 1.64 1.64 0 0 0 .53 2.29 11 11 0 0 0 3.37 1.37l-3.24 3.17a1.64 1.64 0 0 0 0 2.35 1.73 1.73 0 0 0 2.4 0l3.18-3.12 3.18 3.12a1.72 1.72 0 0 0 2.4 0 1.64 1.64 0 0 0 0-2.35z"/></symbol><use xlink:href="#f" width="22" height="22" y="86"/><view viewBox="0 86 22 22"/><symbol id="g" fill="none" viewBox="0 0 22 22"><path fill="currentColor" d="M12.95.5a2.1 2.1 0 0 0-1.63.83c-.39.5-.6 1.1-.76 1.73a14.94 14.94 0 0 0-.34 3.17c-1.8.12-3.43.68-4.79 1.55a2.8 2.8 0 0 0-1.85-.75 2.4 2.4 0 0 0-1.92 1 3.8 3.8 0 0 0 .27 4.64 6.6 6.6 0 0 0-.12 1.18c0 4.23 4.11 7.65 9.19 7.65s9.2-3.43 9.2-7.65c0-.4-.06-.8-.13-1.18a3.8 3.8 0 0 0 .27-4.63 2.4 2.4 0 0 0-1.92-1.01c-.64 0-1.3.26-1.85.75a10.17 10.17 0 0 0-4.77-1.56c.03-.93.1-1.9.27-2.64.11-.46.25-.8.39-.98s.25-.26.49-.26c.52 0 .58.18.9.6.15.22.34.5.63.75.29.27.72.5 1.19.5v-1.85c-.13 0-.16 0-.24-.09-.1-.08-.21-.27-.4-.51-.35-.5-1.05-1.24-2.08-1.24m5.06.17c-1.22 0-2.2 1.16-2.2 2.6 0 1.42.98 2.58 2.2 2.58s2.18-1.16 2.18-2.59-.98-2.59-2.19-2.59m0 .92c.78 0 1.41.75 1.41 1.67 0 .92-.63 1.67-1.4 1.67s-1.42-.75-1.42-1.67.64-1.67 1.41-1.67m-7 6.07c4.3 0 7.95 2.84 7.95 6.19 0 3.35-3.64 6.18-7.95 6.18s-7.95-2.83-7.95-6.18c0-3.35 3.64-6.19 7.95-6.19m-7.4.84c.22 0 .45.06.66.17-.78.7-1.4 1.5-1.82 2.42-.3-.72-.21-1.6.15-2.07a1.24 1.24 0 0 1 1.02-.52m14.78 0c.4 0 .76.17 1.02.51.36.48.44 1.37.15 2.08a7.48 7.48 0 0 0-1.82-2.42 1.5 1.5 0 0 1 .65-.17m-10.5 2.3c-.78 0-1.41.75-1.41 1.67s.63 1.67 1.4 1.67 1.42-.75 1.42-1.67c0-.92-.63-1.67-1.41-1.67m6.22 0c-.78 0-1.4.75-1.4 1.67s.62 1.67 1.4 1.67 1.41-.75 1.41-1.67c0-.92-.63-1.67-1.4-1.67m-6.99 5.67c.5 1.2 2.03 2.38 3.87 2.38s3.4-1.17 3.89-2.38c-.9.68-2.32 1.15-3.89 1.15s-2.97-.47-3.87-1.15"/></symbol><use xlink:href="#g" width="22" height="22" y="108"/><view viewBox="0 108 22 22"/><symbol id="h" fill="none" viewBox="0 0 22 22"><path fill="currentColor" d="m11 0 3.01 5.48 5.99.02-2.97 5.5 2.97 5.5-5.99.03-3.01 5.47-3.01-5.47-5.99-.03 2.97-5.5-2.97-5.5 5.99-.02z"/></symbol><use xlink:href="#h" width="22" height="22" y="130"/><view viewBox="0 130 22 22"/><symbol id="i" fill="none" viewBox="0 0 22 22"><path fill="currentColor" d="M21.8 15.7c-.06-.1-.42-.85-2.18-2.41-1.84-1.64-1.6-1.37.62-4.2 1.36-1.72 1.9-2.77 1.73-3.22-.16-.43-1.16-.32-1.16-.32l-3.3.02s-.25-.03-.43.07-.3.34-.3.34-.52 1.33-1.22 2.47c-1.47 2.39-2.06 2.51-2.3 2.37-.56-.35-.42-1.4-.42-2.14 0-2.31.37-3.28-.72-3.53a5.92 5.92 0 0 0-1.54-.15c-1.18 0-2.18 0-2.74.27-.38.18-.67.57-.5.6.22.02.72.12.98.46.34.44.33 1.43.33 1.43s.2 2.73-.46 3.07c-.44.23-1.06-.24-2.37-2.41-.67-1.11-1.18-2.34-1.18-2.34s-.1-.23-.27-.35a1.4 1.4 0 0 0-.51-.2l-3.14.02s-.47.01-.65.2c-.15.18-.01.54-.01.54s2.46 5.5 5.25 8.28c2.55 2.55 5.46 2.38 5.46 2.38h1.3s.4-.04.6-.25c.2-.2.19-.55.19-.55s-.03-1.69.8-1.94c.8-.24 1.84 1.63 2.93 2.35.83.55 1.47.43 1.47.43l2.94-.04s1.53-.1.8-1.25"/></symbol><use xlink:href="#i" width="22" height="22" y="152"/><view viewBox="0 152 22 22"/></svg>